<svg xmlns="http://www.w3.org/2000/svg" width="28" height="58" viewBox="0 0 28 58" fill="#A234FD"><path d="M26.5719 42.6781C26.2206 42.3289 25.7454 42.1329 25.25 42.1329C24.7547 42.1329 24.2795 42.3289 23.9282 42.6781L15.875 50.7219V2.75C15.875 2.25272 15.6775 1.77581 15.3259 1.42417C14.9742 1.07254 14.4973 0.875 14 0.875C13.5027 0.875 13.0258 1.07254 12.6742 1.42417C12.3226 1.77581 12.125 2.25272 12.125 2.75V50.7219L4.0719 42.6781C3.71321 42.3709 3.25182 42.2104 2.77993 42.2287C2.30803 42.2469 1.8604 42.4425 1.52647 42.7764C1.19254 43.1104 0.99692 43.558 0.978693 44.0299C0.960466 44.5018 1.12098 44.9632 1.42815 45.3219L12.6782 56.5719C12.8525 56.7476 13.0598 56.8871 13.2883 56.9823C13.5168 57.0775 13.7619 57.1265 14.0094 57.1265C14.2569 57.1265 14.502 57.0775 14.7305 56.9823C14.959 56.8871 15.1663 56.7476 15.3407 56.5719L26.5907 45.3219C26.9374 44.9681 27.13 44.4915 27.1265 43.9961C27.123 43.5008 26.9236 43.0269 26.5719 42.6781Z"></path></svg>