<svg xmlns="http://www.w3.org/2000/svg" width="18" height="18" viewBox="0 0 18 18" fill="none"><path d="M8.99996 16.3126C8.87774 16.3126 8.75885 16.2727 8.66128 16.1991C8.56372 16.1255 8.49278 16.0221 8.45921 15.9046L7.87496 13.8593C7.62381 12.9695 7.14863 12.159 6.49485 11.5052C5.84107 10.8514 5.03053 10.3762 4.14071 10.1251L2.09546 9.54083C1.97801 9.50719 1.87471 9.43622 1.80118 9.33866C1.72764 9.2411 1.68787 9.12225 1.68787 9.00008C1.68787 8.87791 1.72764 8.75906 1.80118 8.6615C1.87471 8.56394 1.97801 8.49298 2.09546 8.45933L4.14071 7.87508C5.03053 7.62393 5.84107 7.14875 6.49485 6.49497C7.14863 5.84119 7.62381 5.03065 7.87496 4.14083L8.45921 2.09558C8.49286 1.97814 8.56382 1.87484 8.66138 1.8013C8.75894 1.72776 8.87779 1.68799 8.99996 1.68799C9.12213 1.68799 9.24098 1.72776 9.33854 1.8013C9.4361 1.87484 9.50707 1.97814 9.54071 2.09558L10.125 4.14083C10.3761 5.03065 10.8513 5.84119 11.5051 6.49497C12.1589 7.14875 12.9694 7.62393 13.8592 7.87508L15.9045 8.45933C16.0219 8.49298 16.1252 8.56394 16.1987 8.6615C16.2723 8.75906 16.3121 8.87791 16.3121 9.00008C16.3121 9.12225 16.2723 9.2411 16.1987 9.33866C16.1252 9.43622 16.0219 9.50719 15.9045 9.54083L13.8592 10.1251C12.9694 10.3762 12.1589 10.8514 11.5051 11.5052C10.8513 12.159 10.3761 12.9695 10.125 13.8593L9.54071 15.9046C9.50714 16.0221 9.43621 16.1255 9.33864 16.1991C9.24107 16.2727 9.12218 16.3126 8.99996 16.3126ZM4.29746 9.00008L4.44746 9.04358C5.52133 9.34675 6.49951 9.92024 7.28853 10.7093C8.07755 11.4983 8.65104 12.4765 8.95421 13.5503L8.99771 13.7003L9.04121 13.5503C9.34438 12.4765 9.91787 11.4983 10.7069 10.7093C11.4959 9.92024 12.4741 9.34675 13.548 9.04358L13.698 9.00008L13.548 8.95658C12.4741 8.65342 11.4959 8.07992 10.7069 7.2909C9.91787 6.50188 9.34438 5.5237 9.04121 4.44983L8.99996 4.29833L8.95646 4.44833C8.65329 5.5222 8.0798 6.50038 7.29078 7.2894C6.50176 8.07842 5.52358 8.65191 4.44971 8.95508L4.29746 9.00008Z" fill="url(#paint0_linear_1_219)"></path><defs><linearGradient id="paint0_linear_1_219" x1="8.99996" y1="1.68799" x2="8.99996" y2="16.3126" gradientUnits="userSpaceOnUse"><stop stop-color="#F8B6BC"></stop><stop offset="0.465" stop-color="#771A99"></stop><stop offset="1" stop-color="#BD6FFD"></stop></linearGradient></defs></svg>