<svg xmlns="http://www.w3.org/2000/svg" width="59" height="64" viewBox="0 0 59 64" fill="white"><path d="M56.8847 47.3893C53.9147 52.5303 47.2762 54.4251 41.9889 51.3799L39.6297 50.0162V53.0949C39.6297 59.1059 34.7355 64 28.7246 64C22.6928 64 17.8195 59.1184 17.8195 53.0949V51.4049L16.665 52.0742C11.4529 55.0776 4.76858 53.2872 1.76098 48.0836C0.807191 46.4229 0.301064 44.5406 0.301064 42.6373C0.301064 38.7513 2.39263 35.1289 5.75987 33.1837L8.11485 31.8242L5.45023 30.2848C0.242339 27.2772 -1.54792 20.597 1.45967 15.3892C3.40059 12.0261 7.0272 9.93452 10.9174 9.93452C12.8165 9.93452 14.6988 10.4406 16.3595 11.3944L17.8194 12.2394V10.9051C17.8194 4.88991 22.7093 0 28.7245 0C34.7564 0 39.6296 4.88158 39.6296 10.9051V13.6282L42.2899 12.0888C47.4978 9.08542 54.178 10.8758 57.1857 16.0836C60.2351 21.3835 58.3235 28.0136 53.1952 30.9792L51.7353 31.8242L52.8898 32.4893C58.1144 35.5055 59.8964 42.169 56.8847 47.3893Z"></path></svg>