<svg xmlns="http://www.w3.org/2000/svg" width="19" height="19" viewBox="0 0 19 19" fill="none"> <path d="M18.279 1.8165L15.1457 16.3748C15.0791 16.6915 14.8707 16.9582 14.5791 17.0998C14.2874 17.2415 13.954 17.2415 13.654 17.0998L11.3207 15.9665C11.3207 15.9665 8.33738 18.1248 7.72905 18.4082C7.61238 18.4665 7.56238 18.4582 7.47905 18.4582C7.36238 18.4582 7.23738 18.4248 7.13738 18.3582C6.96238 18.2415 6.85405 18.0498 6.85405 17.8415V13.4165C6.84572 13.3248 6.85405 13.2332 6.90405 13.1415C6.90405 13.1415 6.91238 13.1248 6.92072 13.1165C6.94572 13.0748 6.97072 13.0332 7.00405 12.9915L14.679 4.5915L5.13738 12.4415C5.06238 12.5165 4.96238 12.5832 4.85405 12.6082C4.67905 12.6582 4.48738 12.6248 4.33738 12.5248L1.12905 11.0748C0.770716 10.8998 0.545716 10.5498 0.52905 10.1498C0.520716 9.75817 0.729049 9.3915 1.07905 9.19984L16.7457 0.674836C17.1124 0.474836 17.5457 0.50817 17.8874 0.75817C18.2207 1.00817 18.3707 1.4165 18.2874 1.8165H18.279Z" fill="url(#paint0_linear_1_567)"></path> <defs> <linearGradient id="paint0_linear_1_567" x1="0.528809" y1="9.46578" x2="18.31" y2="9.46578" gradientUnits="userSpaceOnUse"> <stop stop-color="#7512A2"></stop> <stop offset="0.485331" stop-color="#FF31AB"></stop> <stop offset="1" stop-color="#FF6F05"></stop> </linearGradient> </defs> </svg>